<mxfile host="Electron" agent="Mozilla/5.0 (Windows NT 10.0; Win64; x64) AppleWebKit/537.36 (KHTML, like Gecko) draw.io/28.0.6 Chrome/138.0.7204.100 Electron/37.2.3 Safari/537.36" version="28.0.6">
  <diagram id="C5RBs43oDa-KdzZeNtuy" name="Page-1">
    <mxGraphModel dx="1532" dy="489" grid="1" gridSize="10" guides="1" tooltips="1" connect="1" arrows="1" fold="1" page="1" pageScale="1" pageWidth="827" pageHeight="1169" math="0" shadow="0">
      <root>
        <mxCell id="WIyWlLk6GJQsqaUBKTNV-0" />
        <mxCell id="WIyWlLk6GJQsqaUBKTNV-1" parent="WIyWlLk6GJQsqaUBKTNV-0" />
        <mxCell id="4sKMAMPnq74Tvfxk3cM4-0" value="order_products_prior_df" style="text;whiteSpace=wrap;" vertex="1" parent="WIyWlLk6GJQsqaUBKTNV-1">
          <mxGeometry x="70" y="110" width="160" height="40" as="geometry" />
        </mxCell>
        <mxCell id="4sKMAMPnq74Tvfxk3cM4-1" value="root&#xa; |-- order_id: integer (nullable = true)&#xa; |-- product_id: integer (nullable = true)&#xa; |-- add_to_cart_order: integer (nullable = true)&#xa; |-- reordered: integer (nullable = true)" style="text;whiteSpace=wrap;" vertex="1" parent="WIyWlLk6GJQsqaUBKTNV-1">
          <mxGeometry x="70" y="130" width="280" height="100" as="geometry" />
        </mxCell>
        <mxCell id="4sKMAMPnq74Tvfxk3cM4-2" value="order_products_detailed_df" style="text;whiteSpace=wrap;" vertex="1" parent="WIyWlLk6GJQsqaUBKTNV-1">
          <mxGeometry x="440" y="110" width="180" height="40" as="geometry" />
        </mxCell>
        <mxCell id="4sKMAMPnq74Tvfxk3cM4-3" value="root&#xa; |-- product_id: integer (nullable = true)&#xa; |-- order_id: integer (nullable = true)&#xa; |-- add_to_cart_order: integer (nullable = true)&#xa; |-- reordered: integer (nullable = true)&#xa; |-- product_name: string (nullable = true)&#xa; |-- aisle: string (nullable = true)&#xa; |-- department: string (nullable = true)" style="text;whiteSpace=wrap;" vertex="1" parent="WIyWlLk6GJQsqaUBKTNV-1">
          <mxGeometry x="440" y="130" width="280" height="140" as="geometry" />
        </mxCell>
        <mxCell id="4sKMAMPnq74Tvfxk3cM4-4" value="root&#xa; |-- aisle_id: integer (nullable = true)&#xa; |-- aisle: string (nullable = true)" style="text;whiteSpace=wrap;" vertex="1" parent="WIyWlLk6GJQsqaUBKTNV-1">
          <mxGeometry x="70" y="330" width="220" height="70" as="geometry" />
        </mxCell>
        <mxCell id="4sKMAMPnq74Tvfxk3cM4-5" value="aisles_df" style="text;whiteSpace=wrap;" vertex="1" parent="WIyWlLk6GJQsqaUBKTNV-1">
          <mxGeometry x="70" y="310" width="80" height="40" as="geometry" />
        </mxCell>
        <mxCell id="4sKMAMPnq74Tvfxk3cM4-6" value="departments_df" style="text;whiteSpace=wrap;" vertex="1" parent="WIyWlLk6GJQsqaUBKTNV-1">
          <mxGeometry x="70" y="450" width="120" height="40" as="geometry" />
        </mxCell>
        <mxCell id="4sKMAMPnq74Tvfxk3cM4-7" value="root&#xa; |-- department_id: integer (nullable = true)&#xa; |-- department: string (nullable = true)" style="text;whiteSpace=wrap;" vertex="1" parent="WIyWlLk6GJQsqaUBKTNV-1">
          <mxGeometry x="70" y="470" width="260" height="70" as="geometry" />
        </mxCell>
        <mxCell id="4sKMAMPnq74Tvfxk3cM4-8" value="products_df" style="text;whiteSpace=wrap;" vertex="1" parent="WIyWlLk6GJQsqaUBKTNV-1">
          <mxGeometry x="70" y="580" width="100" height="40" as="geometry" />
        </mxCell>
        <mxCell id="4sKMAMPnq74Tvfxk3cM4-9" value="root&#xa; |-- product_id: integer (nullable = true)&#xa; |-- product_name: string (nullable = true)&#xa; |-- aisle_id: string (nullable = true)&#xa; |-- department_id: string (nullable = true)" style="text;whiteSpace=wrap;" vertex="1" parent="WIyWlLk6GJQsqaUBKTNV-1">
          <mxGeometry x="70" y="600" width="250" height="100" as="geometry" />
        </mxCell>
        <mxCell id="4sKMAMPnq74Tvfxk3cM4-10" value="orders_df" style="text;whiteSpace=wrap;" vertex="1" parent="WIyWlLk6GJQsqaUBKTNV-1">
          <mxGeometry x="70" y="750" width="80" height="40" as="geometry" />
        </mxCell>
        <mxCell id="4sKMAMPnq74Tvfxk3cM4-11" value="root&#xa; |-- order_id: integer (nullable = true)&#xa; |-- user_id: integer (nullable = true)&#xa; |-- eval_set: string (nullable = true)&#xa; |-- order_number: integer (nullable = true)&#xa; |-- order_dow: integer (nullable = true)&#xa; |-- order_hour_of_day: integer (nullable = true)&#xa; |-- days_since_prior_order: double (nullable = true)" style="text;whiteSpace=wrap;" vertex="1" parent="WIyWlLk6GJQsqaUBKTNV-1">
          <mxGeometry x="70" y="770" width="310" height="140" as="geometry" />
        </mxCell>
        <mxCell id="4sKMAMPnq74Tvfxk3cM4-12" value="root&#xa; |-- order_id: integer (nullable = true)&#xa; |-- product_id: integer (nullable = true)&#xa; |-- add_to_cart_order: integer (nullable = true)&#xa; |-- reordered: integer (nullable = true)" style="text;whiteSpace=wrap;" vertex="1" parent="WIyWlLk6GJQsqaUBKTNV-1">
          <mxGeometry x="70" y="940" width="280" height="100" as="geometry" />
        </mxCell>
        <mxCell id="4sKMAMPnq74Tvfxk3cM4-13" value="order_products_prior_df" style="text;whiteSpace=wrap;" vertex="1" parent="WIyWlLk6GJQsqaUBKTNV-1">
          <mxGeometry x="70" y="920" width="160" height="40" as="geometry" />
        </mxCell>
        <mxCell id="4sKMAMPnq74Tvfxk3cM4-16" value="" style="curved=1;endArrow=classic;html=1;rounded=0;exitX=0;exitY=0.727;exitDx=0;exitDy=0;exitPerimeter=0;" edge="1" parent="WIyWlLk6GJQsqaUBKTNV-1" source="4sKMAMPnq74Tvfxk3cM4-9">
          <mxGeometry width="50" height="50" relative="1" as="geometry">
            <mxPoint x="70" y="680" as="sourcePoint" />
            <mxPoint x="70" y="500" as="targetPoint" />
            <Array as="points">
              <mxPoint x="60" y="670" />
              <mxPoint x="-20" y="570" />
              <mxPoint x="20" y="500" />
            </Array>
          </mxGeometry>
        </mxCell>
        <mxCell id="4sKMAMPnq74Tvfxk3cM4-17" value="" style="curved=1;endArrow=classic;html=1;rounded=0;exitX=0.011;exitY=0.574;exitDx=0;exitDy=0;exitPerimeter=0;" edge="1" parent="WIyWlLk6GJQsqaUBKTNV-1" source="4sKMAMPnq74Tvfxk3cM4-9">
          <mxGeometry width="50" height="50" relative="1" as="geometry">
            <mxPoint x="20" y="410" as="sourcePoint" />
            <mxPoint x="70" y="360" as="targetPoint" />
            <Array as="points">
              <mxPoint x="70" y="660" />
              <mxPoint y="510" />
              <mxPoint x="20" y="360" />
            </Array>
          </mxGeometry>
        </mxCell>
      </root>
    </mxGraphModel>
  </diagram>
</mxfile>
